<mxfile host="app.diagrams.net" modified="2023-10-04T02:37:11.591Z" agent="Mozilla/5.0 (Windows NT 10.0; Win64; x64) AppleWebKit/537.36 (KHTML, like Gecko) Chrome/115.0.0.0 Safari/537.36" etag="7FMLEcaVtLGriwIYdlEH" version="22.0.2" type="github">
  <diagram name="Page-1" id="7tJaS2nOAaOVG5qg-9IR">
    <mxGraphModel dx="880" dy="446" grid="1" gridSize="10" guides="1" tooltips="1" connect="1" arrows="1" fold="1" page="1" pageScale="1" pageWidth="850" pageHeight="1100" math="0" shadow="0">
      <root>
        <mxCell id="0" />
        <mxCell id="1" parent="0" />
        <mxCell id="Dm_pzGbh7FSzdLAzdxD4-1" value="start" style="ellipse;whiteSpace=wrap;html=1;" parent="1" vertex="1">
          <mxGeometry x="310" y="10" width="110" height="50" as="geometry" />
        </mxCell>
        <mxCell id="Dm_pzGbh7FSzdLAzdxD4-2" value="" style="endArrow=classic;html=1;rounded=0;exitX=0.445;exitY=1;exitDx=0;exitDy=0;exitPerimeter=0;" parent="1" source="Dm_pzGbh7FSzdLAzdxD4-1" edge="1">
          <mxGeometry width="50" height="50" relative="1" as="geometry">
            <mxPoint x="400" y="210" as="sourcePoint" />
            <mxPoint x="360" y="110" as="targetPoint" />
          </mxGeometry>
        </mxCell>
        <mxCell id="Dm_pzGbh7FSzdLAzdxD4-8" value="" style="endArrow=classic;html=1;rounded=0;exitX=0.433;exitY=1.017;exitDx=0;exitDy=0;exitPerimeter=0;" parent="1" edge="1">
          <mxGeometry width="50" height="50" relative="1" as="geometry">
            <mxPoint x="356.96000000000004" y="181.01999999999998" as="sourcePoint" />
            <mxPoint x="357" y="230" as="targetPoint" />
          </mxGeometry>
        </mxCell>
        <mxCell id="Dm_pzGbh7FSzdLAzdxD4-24" value="no" style="edgeStyle=orthogonalEdgeStyle;rounded=0;orthogonalLoop=1;jettySize=auto;html=1;" parent="1" source="Dm_pzGbh7FSzdLAzdxD4-9" target="Dm_pzGbh7FSzdLAzdxD4-23" edge="1">
          <mxGeometry x="-0.3548" relative="1" as="geometry">
            <mxPoint as="offset" />
          </mxGeometry>
        </mxCell>
        <mxCell id="Dm_pzGbh7FSzdLAzdxD4-9" value="if(input==tebakan" style="rhombus;whiteSpace=wrap;html=1;" parent="1" vertex="1">
          <mxGeometry x="300" y="460" width="120" height="100" as="geometry" />
        </mxCell>
        <mxCell id="Dm_pzGbh7FSzdLAzdxD4-10" value="" style="endArrow=classic;html=1;rounded=0;exitX=0.438;exitY=0.98;exitDx=0;exitDy=0;exitPerimeter=0;" parent="1" edge="1">
          <mxGeometry width="50" height="50" relative="1" as="geometry">
            <mxPoint x="355.99" y="289" as="sourcePoint" />
            <mxPoint x="356" y="460" as="targetPoint" />
          </mxGeometry>
        </mxCell>
        <mxCell id="Dm_pzGbh7FSzdLAzdxD4-12" value="tebakan" style="rounded=0;whiteSpace=wrap;html=1;" parent="1" vertex="1">
          <mxGeometry x="300" y="240" width="120" height="60" as="geometry" />
        </mxCell>
        <mxCell id="Dm_pzGbh7FSzdLAzdxD4-14" value="input angka" style="shape=parallelogram;perimeter=parallelogramPerimeter;whiteSpace=wrap;html=1;fixedSize=1;" parent="1" vertex="1">
          <mxGeometry x="290" y="120" width="120" height="60" as="geometry" />
        </mxCell>
        <mxCell id="Dm_pzGbh7FSzdLAzdxD4-20" value="yes" style="endArrow=classic;html=1;rounded=0;exitX=0.5;exitY=1;exitDx=0;exitDy=0;entryX=0.608;entryY=-0.067;entryDx=0;entryDy=0;entryPerimeter=0;" parent="1" source="Dm_pzGbh7FSzdLAzdxD4-9" target="Dm_pzGbh7FSzdLAzdxD4-21" edge="1">
          <mxGeometry width="50" height="50" relative="1" as="geometry">
            <mxPoint x="400" y="610" as="sourcePoint" />
            <mxPoint x="360" y="970" as="targetPoint" />
          </mxGeometry>
        </mxCell>
        <mxCell id="Dm_pzGbh7FSzdLAzdxD4-21" value="tebakan benar" style="shape=parallelogram;perimeter=parallelogramPerimeter;whiteSpace=wrap;html=1;fixedSize=1;" parent="1" vertex="1">
          <mxGeometry x="290" y="980" width="120" height="60" as="geometry" />
        </mxCell>
        <mxCell id="Dm_pzGbh7FSzdLAzdxD4-29" value="yes" style="edgeStyle=orthogonalEdgeStyle;rounded=0;orthogonalLoop=1;jettySize=auto;html=1;exitX=1;exitY=0.5;exitDx=0;exitDy=0;" parent="1" source="Dm_pzGbh7FSzdLAzdxD4-23" edge="1">
          <mxGeometry relative="1" as="geometry">
            <mxPoint x="770" y="685" as="targetPoint" />
          </mxGeometry>
        </mxCell>
        <mxCell id="Dm_pzGbh7FSzdLAzdxD4-23" value="jika tebakan &amp;gt;input" style="rhombus;whiteSpace=wrap;html=1;" parent="1" vertex="1">
          <mxGeometry x="550" y="620" width="140" height="130" as="geometry" />
        </mxCell>
        <mxCell id="Dm_pzGbh7FSzdLAzdxD4-25" value="no" style="endArrow=classic;html=1;rounded=0;exitX=0.5;exitY=1;exitDx=0;exitDy=0;" parent="1" source="Dm_pzGbh7FSzdLAzdxD4-23" edge="1">
          <mxGeometry width="50" height="50" relative="1" as="geometry">
            <mxPoint x="560" y="810" as="sourcePoint" />
            <mxPoint x="620" y="820" as="targetPoint" />
          </mxGeometry>
        </mxCell>
        <mxCell id="Dm_pzGbh7FSzdLAzdxD4-47" value="no" style="edgeStyle=orthogonalEdgeStyle;rounded=0;orthogonalLoop=1;jettySize=auto;html=1;exitX=0.5;exitY=1;exitDx=0;exitDy=0;" parent="1" source="Dm_pzGbh7FSzdLAzdxD4-27" edge="1">
          <mxGeometry x="-0.7333" relative="1" as="geometry">
            <mxPoint x="390" y="970" as="targetPoint" />
            <Array as="points">
              <mxPoint x="620" y="950" />
            </Array>
            <mxPoint as="offset" />
          </mxGeometry>
        </mxCell>
        <mxCell id="Dm_pzGbh7FSzdLAzdxD4-27" value="jika tebakan&amp;lt;input" style="rhombus;whiteSpace=wrap;html=1;" parent="1" vertex="1">
          <mxGeometry x="560" y="820" width="120" height="110" as="geometry" />
        </mxCell>
        <mxCell id="Dm_pzGbh7FSzdLAzdxD4-44" style="edgeStyle=orthogonalEdgeStyle;rounded=0;orthogonalLoop=1;jettySize=auto;html=1;" parent="1" source="Dm_pzGbh7FSzdLAzdxD4-30" edge="1">
          <mxGeometry relative="1" as="geometry">
            <mxPoint x="840" y="270" as="targetPoint" />
          </mxGeometry>
        </mxCell>
        <mxCell id="Dm_pzGbh7FSzdLAzdxD4-30" value="tebakan terlalu besar" style="shape=parallelogram;perimeter=parallelogramPerimeter;whiteSpace=wrap;html=1;fixedSize=1;" parent="1" vertex="1">
          <mxGeometry x="760" y="650" width="150" height="65" as="geometry" />
        </mxCell>
        <mxCell id="Dm_pzGbh7FSzdLAzdxD4-36" value="yes" style="endArrow=classic;html=1;rounded=0;exitX=1;exitY=0.5;exitDx=0;exitDy=0;" parent="1" source="Dm_pzGbh7FSzdLAzdxD4-27" edge="1">
          <mxGeometry width="50" height="50" relative="1" as="geometry">
            <mxPoint x="490" y="810" as="sourcePoint" />
            <mxPoint x="770" y="875" as="targetPoint" />
          </mxGeometry>
        </mxCell>
        <mxCell id="Dm_pzGbh7FSzdLAzdxD4-46" style="edgeStyle=orthogonalEdgeStyle;rounded=0;orthogonalLoop=1;jettySize=auto;html=1;exitX=1;exitY=0.5;exitDx=0;exitDy=0;" parent="1" edge="1">
          <mxGeometry relative="1" as="geometry">
            <mxPoint x="960" y="270" as="targetPoint" />
            <mxPoint x="790" y="875" as="sourcePoint" />
          </mxGeometry>
        </mxCell>
        <mxCell id="Dm_pzGbh7FSzdLAzdxD4-38" value="terlalu kecil" style="shape=parallelogram;perimeter=parallelogramPerimeter;whiteSpace=wrap;html=1;fixedSize=1;" parent="1" vertex="1">
          <mxGeometry x="760" y="845" width="120" height="60" as="geometry" />
        </mxCell>
        <mxCell id="Dm_pzGbh7FSzdLAzdxD4-39" value="" style="endArrow=classic;html=1;rounded=0;exitX=1;exitY=0.5;exitDx=0;exitDy=0;" parent="1" source="Dm_pzGbh7FSzdLAzdxD4-21" edge="1">
          <mxGeometry width="50" height="50" relative="1" as="geometry">
            <mxPoint x="490" y="910" as="sourcePoint" />
            <mxPoint x="570" y="1010" as="targetPoint" />
          </mxGeometry>
        </mxCell>
        <mxCell id="Dm_pzGbh7FSzdLAzdxD4-40" value="stop" style="ellipse;whiteSpace=wrap;html=1;" parent="1" vertex="1">
          <mxGeometry x="570" y="985" width="70" height="50" as="geometry" />
        </mxCell>
        <mxCell id="Dm_pzGbh7FSzdLAzdxD4-45" value="" style="endArrow=classic;html=1;rounded=0;" parent="1" edge="1">
          <mxGeometry width="50" height="50" relative="1" as="geometry">
            <mxPoint x="970" y="270" as="sourcePoint" />
            <mxPoint x="430" y="270" as="targetPoint" />
          </mxGeometry>
        </mxCell>
      </root>
    </mxGraphModel>
  </diagram>
</mxfile>
